<?xml version="1.0" standalone="no"?><!DOCTYPE svg PUBLIC "-//W3C//DTD SVG 1.1//EN"
  "http://www.w3.org/Graphics/SVG/1.1/DTD/svg11.dtd">
<svg t="1582775221594" class="icon" viewBox="0 0 1024 1024" version="1.1" xmlns="http://www.w3.org/2000/svg" p-id="1512"
     width="200" height="200">
  <defs>
    <style type="text/css"></style>
  </defs>
  <path
    d="M512.02048 880.62976H512c-98.6112 0-191.22176-38.30784-260.77184-107.86816-143.79008-143.77984-143.79008-377.74336 0-521.53344C320.77824 181.67808 413.3888 143.37024 512 143.37024s191.21152 38.30784 260.7616 107.85792C842.32192 320.77824 880.62976 413.3888 880.62976 512c0.01024 98.62144-38.2976 191.232-107.84768 260.78208S610.63168 880.62976 512.02048 880.62976zM512 184.33024c-87.66464 0-169.99424 34.048-231.80288 95.85664-127.81568 127.82592-127.81568 335.80032 0 463.60576 61.81888 61.81888 144.14848 95.86688 231.82336 95.86688s169.99424-34.03776 231.81312-95.8464C805.64224 681.99424 839.68 599.67488 839.68 512c0-87.67488-34.048-170.00448-95.86688-231.82336-61.82912-61.7984-144.14848-95.8464-231.81312-95.8464z"
    fill="#858585" p-id="1513"></path>
  <path
    d="M265.70752 778.76224a20.48 20.48 0 0 1-14.47936-34.95936l492.57472-492.57472a20.48 20.48 0 1 1 28.95872 28.95872L280.18688 772.7616c-3.9936 3.9936-9.23648 6.00064-14.47936 6.00064z"
    fill="#858585" p-id="1514"></path>
</svg>
