<?xml version="1.0" encoding="UTF-8"?>
<svg width="60px" height="60px" viewBox="0 0 60 60" version="1.1" xmlns="http://www.w3.org/2000/svg">
  <!-- Generator: Sketch 57.1 (83088) - https://sketch.com -->
  <title>icon/success</title>
  <desc>Created with Sketch.</desc>
  <g id="icon/success" stroke="none" stroke-width="1" fill="none" fill-rule="evenodd">
    <g id="success" fill-rule="nonzero">
      <rect id="矩形" fill="#000000" opacity="0" x="0" y="0" width="60" height="60"></rect>
      <path
        d="M27.2020062,39.6965534 C27.786013,40.2333404 28.6913569,40.2071244 29.2433238,39.6374431 L46.8108419,21.5061268 C47.3732449,20.9256745 47.358613,19.9992071 46.7781606,19.436804 C46.1977084,18.874401 45.271241,18.8890329 44.7088379,19.4694853 L27.1413197,37.6008015 L29.1826372,37.5416913 L18.5512991,27.7699489 C17.9562505,27.2230127 17.0304888,27.2620157 16.4835526,27.8570645 C15.9366165,28.4521133 15.9756195,29.3778749 16.5706682,29.924811 L27.2020062,39.6965534 Z M60,30 C60,13.4314575 46.5685425,0 30,0 C13.4314575,0 0,13.4314575 0,30 C0,46.5685425 13.4314575,60 30,60 C36.8795409,60 43.4077844,57.6756472 48.6778397,53.4777341 C49.3100144,52.9741694 49.4142732,52.0534707 48.9107085,51.4212962 C48.4071438,50.7891216 47.4864451,50.6848628 46.8542706,51.1884274 C42.0978536,54.977197 36.2110417,57.0731708 30,57.0731708 C15.0479006,57.0731708 2.92682924,44.9520994 2.92682924,30 C2.92682924,15.0479006 15.0479006,2.92682924 30,2.92682924 C44.9520994,2.92682924 57.0731708,15.0479006 57.0731708,30 C57.0731708,35.1265332 55.647355,40.0392635 52.9963363,44.2945719 C52.5689712,44.9805611 52.7786276,45.8831131 53.4646168,46.3104781 C54.150606,46.7378432 55.053158,46.528187 55.4805231,45.8421977 C58.4187789,41.1258279 60,35.6776394 60,30 Z"
        id="形状" fill="#40C940"></path>
    </g>
  </g>
</svg>
