<?xml version="1.0" encoding="UTF-8"?>
<svg width="21px" height="19px" viewBox="0 0 21 19" version="1.1" xmlns="http://www.w3.org/2000/svg" xmlns:xlink="http://www.w3.org/1999/xlink">
    <!-- Generator: Sketch 52.3 (67297) - http://www.bohemiancoding.com/sketch -->
    <title>icon-star</title>
    <desc>Created with Sketch.</desc>
    <g id="Symbols" stroke="none" stroke-width="1" fill="none" fill-rule="evenodd">
        <g id="portal-react" transform="translate(-1145.000000, -22.000000)" fill="#EEB829">
            <g id="stat-sel" transform="translate(1145.900000, 22.000000)">
                <g id="Group-2">
                    <path d="M19.9544841,7.19117006 C19.8448997,6.85580195 19.5524919,6.6098481 19.2010593,6.5594682 L13.4212294,5.72383404 L10.8348888,0.517011475 C10.6774607,0.201289801 10.3541392,0 9.99999081,0 C9.64572687,0 9.32252097,0.201289801 9.1650928,0.517011475 L6.57875221,5.72383404 L0.798806803,6.5594682 C0.447489761,6.6098481 0.155081884,6.85298711 0.0453819823,7.19117006 C-0.0642023549,7.52650944 0.0285673015,7.89542585 0.281596467,8.1413797 L4.46472502,12.1938593 L3.48074839,17.9176933 C3.42172366,18.2642633 3.56505292,18.616463 3.85179812,18.8232389 C4.13857222,19.0300148 4.51811596,19.058077 4.83297231,18.8931503 L10.0028222,16.1905016 L15.1726431,18.8931503 C15.3075072,18.9630331 15.4565859,18.9992813 15.6055489,18.9992813 C15.7995533,18.9992813 15.9907264,18.9406005 16.1537017,18.8232389 C16.4404758,18.616463 16.5838051,18.2642633 16.5247804,17.9176933 L15.5380591,12.1938593 L19.7212165,8.1413797 C19.9714143,7.89542585 20.064184,7.52650944 19.9544841,7.19117006 Z" id="icon-star"></path>
                </g>
            </g>
        </g>
    </g>
</svg>