<?xml version="1.0" encoding="utf-8"?>
<!-- Generator: Adobe Illustrator 22.0.0, SVG Export Plug-In . SVG Version: 6.00 Build 0)  -->
<svg version="1.1" id="图层_1" xmlns="http://www.w3.org/2000/svg" xmlns:xlink="http://www.w3.org/1999/xlink" x="0px" y="0px"
	 viewBox="0 0 1024 1024" style="enable-background:new 0 0 1024 1024;" xml:space="preserve">
<style type="text/css">
	.st0{fill:#A6A6A6;}
</style>
<g id="Page-1">
	<g id="Artboard" transform="translate(-686.000000, -1242.000000)">
		<g id="无数据-copy" transform="translate(686.000000, 1242.000000)">
			<path id="Shape" class="st0" d="M152.9,619.9H165c3.3,0.1,5.9,2.7,5.9,6c0,3.3-2.6,6-5.9,6h-12.1v12.1c-0.1,3.3-2.7,5.9-6,5.9
				c-1.6,0-3.1-0.6-4.2-1.7c-1.1-1.1-1.8-2.6-1.8-4.2v-12.1h-12.1c-3.3-0.1-5.9-2.7-5.9-6c0-3.3,2.6-6,5.9-6h12.1v-12.1
				c0.1-3.3,2.7-5.9,6-5.9c3.3,0,6,2.6,6,5.9V619.9z M942.9,571.9v-12.1c0-1.6-0.6-3.1-1.8-4.2c-1.1-1.1-2.6-1.7-4.2-1.7
				c-3.3,0-5.9,2.6-6,5.9v12.1h-12.1c-1.6,0-3.1,0.6-4.2,1.8c-1.1,1.1-1.7,2.7-1.7,4.2c0,3.2,2.6,6,5.9,6H931V596
				c0,3.3,2.7,5.9,6,5.9c3.3,0,5.9-2.6,6-5.9v-12.1H955c3.3,0,5.9-2.7,5.9-6c0-3.3-2.6-5.9-5.9-6H942.9z M508.1,770H206.7
				c-3.2,0-6.2-1.3-8.5-3.5c-2.2-2.3-3.5-5.3-3.5-8.5c0-6.6,5.4-12,11.9-12H261c-4.2-7.3-6.4-15.5-6.4-24V373.7
				c0-12.7,5.1-25,14.1-34c9-9,21.2-14,33.9-14h35.9v-12.1c0-12.7,5.1-25,14.1-34c9-9,21.2-14,33.9-14h287.2c12.7,0,24.9,5,33.9,14
				c9,9,14,21.2,14,34V662c0,8.7-2.3,16.9-6.4,24h66.2c6.6,0,12,5.3,12,12c0,6.6-5.3,12-12,12H637.7v12.1c0,8.7-2.3,16.9-6.4,24h6.4
				c6.6,0,11.9,5.3,11.9,12c0,6.6-5.4,12-11.9,12h-63c5.5,9.2,4.3,21.3-3.7,29.2c-4.5,4.5-10.6,7.1-16.9,7.1s-12.4-2.5-16.9-7.1
				L508.1,770z M551.8,746h38.1c13.2,0,23.8-10.7,23.8-24.1V373.1c0-13-10.3-23.4-23.1-23.4h-289c-12.8,0-23.1,10.5-23.1,23.4v348.8
				c0,13.3,10.8,24.1,23.8,24.1h181.7l-6.2-6.2c-6.1-6.1-8.4-14.9-6.2-23.2l-11.3-11.3c-35.2,26.3-84.7,20.9-113.4-12.4
				c-28.7-33.3-27-83.2,4-114.4c31.1-31.3,80.9-33.1,114.2-4.2s38.6,78.7,12.2,114l11.3,11.3c8.3-2.2,17.1,0.1,23.1,6.2L551.8,746z
				 M637.7,686h36c13.2-0.1,23.8-10.8,23.8-24V313.7c0-13.3-10.7-24-23.8-24H386.2c-13.2,0.1-23.8,10.8-23.8,24v12h227.4
				c12.7,0,24.9,5,33.9,14c9,9,14,21.2,14,34V686z M215.7,244.7h17.8c5,0,9.1,4,9.1,9c0,5-4.1,9-9.1,9h-17.8v17.9c0,5-4,9.1-9,9.1
				c-2.4,0-4.7-1-6.4-2.7c-1.7-1.7-2.6-4-2.6-6.4v-17.9h-17.8c-2.4,0-4.7-0.9-6.4-2.6s-2.7-4-2.7-6.4c0-5,4.1-9,9.1-9h17.8v-17.9
				c0-5,4-9.1,9-9.1c5,0,9,4.1,9,9.1V244.7z M75.1,758c0-6.6,5.4-12,11.9-12h71.9c6.6,0,11.9,5.3,11.9,12c0,6.6-5.4,12-11.9,12H87
				c-3.2,0-6.2-1.3-8.5-3.5C76.3,764.3,75.1,761.2,75.1,758z M452.6,680.4c15.1-15.2,21-37.3,15.5-58c-5.5-20.7-21.7-36.9-42.3-42.5
				c-20.7-5.6-42.7,0.4-57.8,15.5c-23.4,23.5-23.4,61.5,0,84.9S429.2,703.9,452.6,680.4z M326.5,397.8c0-6.6,5.4-12,12-12h131.7
				c6.6,0,12,5.4,12,12c0,6.6-5.4,12-12,12H338.4c-3.2,0-6.2-1.3-8.5-3.5C327.7,404,326.5,401,326.5,397.8z M326.5,457.8
				c0-6.6,5.3-12,11.9-12H530c6.6,0,11.9,5.3,11.9,12c0,6.6-5.3,12-11.9,12H338.3c-3.2,0-6.2-1.3-8.4-3.5
				C327.7,464.1,326.4,461,326.5,457.8z M326.5,517.9c0-6.6,5.3-12,11.9-12h83.8c6.6,0,11.9,5.3,11.9,12c0,6.6-5.3,12-11.9,12h-83.8
				c-3.2,0-6.2-1.3-8.5-3.5C327.7,524.1,326.5,521.1,326.5,517.9z M99,445.8c-12.8,0-24.7-6.9-31.1-18c-6.4-11.1-6.4-24.9,0-36
				c6.4-11.1,18.3-18,31.1-18c19.8,0,35.9,16.1,35.9,36C134.9,429.7,118.9,445.8,99,445.8z M99,427.8c6.4,0,12.3-3.4,15.6-9
				c3.2-5.6,3.2-12.4,0-18c-3.2-5.6-9.1-9-15.6-9c-9.9,0-18,8.1-18,18C81.1,419.7,89.1,427.8,99,427.8z M841.2,373.8
				c-19.8,0-35.9-16.1-35.9-36s16.1-36,35.9-36c19.8,0,35.9,16.1,35.9,36S861,373.8,841.2,373.8z M841.2,355.8
				c6.4,0,12.3-3.4,15.6-9c3.2-5.6,3.2-12.4,0-18c-3.2-5.6-9.1-9-15.6-9c-9.9,0-18,8.1-18,18S831.3,355.8,841.2,355.8z"/>
		</g>
	</g>
</g>
</svg>
