<?xml version="1.0" encoding="UTF-8"?>
<svg width="16px" height="16px" viewBox="0 0 16 16" version="1.1" xmlns="http://www.w3.org/2000/svg" xmlns:xlink="http://www.w3.org/1999/xlink">
    <!-- Generator: Sketch 63.1 (92452) - https://sketch.com -->
    <title>通用/图标/操作/scheduler</title>
    <desc>Created with Sketch.</desc>
    <g id="通用/图标/操作/scheduler" stroke="none" stroke-width="1" fill="none" fill-rule="evenodd">
        <g id="时间日期">
            <rect id="矩形" fill="#000000" fill-rule="nonzero" opacity="0" x="0" y="0" width="16" height="16"></rect>
            <g id="编组" transform="translate(1.000000, 1.000000)" fill="#8C8C8C">
                <path d="M0.888890625,5.33334375 L13.3333281,5.33334375 L13.3333281,0.88890625 L10.6666719,0.88890625 L10.6666719,5.5067062e-14 L9.77776562,5.5067062e-14 L9.77776562,0.88890625 L3.5555625,0.88890625 L3.5555625,5.5067062e-14 L2.6666875,5.5067062e-14 L2.6666875,0.88890625 L-9.76996262e-15,0.88890625 L-9.76996262e-15,12.4444531 L5.22220312,12.4444531 L5.22220312,11.5555625 L0.888890625,11.5555625 L0.888890625,5.33334375 Z M0.888890625,1.77778125 L2.66667187,1.77778125 L2.66667187,2.6666875 L3.55554687,2.6666875 L3.55554687,1.77778125 L9.77778125,1.77778125 L9.77778125,2.6666875 L10.6666719,2.6666875 L10.6666719,1.77778125 L12.4444375,1.77778125 L12.4444375,4.44445313 L0.888890625,4.44445313 L0.888890625,1.77778125 Z" id="形状"></path>
                <polygon id="路径" points="9.77776432 9.44445833 9.77776432 8.111125 9.11110937 8.111125 9.11110937 10.111125 11.1110977 10.111125 11.1110977 9.44444661"></polygon>
                <polygon id="路径" points="1.66667187 6.22221875 3.4444375 6.22221875 3.4444375 8.00003125 1.66667187 8.00003125"></polygon>
                <polygon id="路径" points="4.33332812 6.22221875 6.11110937 6.22221875 6.11110937 8.00003125 4.33332812 8.00003125"></polygon>
                <polygon id="路径" points="1.66667187 8.88890625 3.4444375 8.88890625 3.4444375 10.6666875 1.66667187 10.6666875"></polygon>
                <path d="M9.61110937,6.111125 C7.66666797,6.111125 6.11110937,7.66668359 6.11110937,9.611125 C6.11110937,11.5555664 7.66666797,13.111125 9.61110937,13.111125 C11.5555508,13.111125 13.1111094,11.5555664 13.1111094,9.611125 C13.1111094,7.66668359 11.5555508,6.111125 9.61110937,6.111125 Z M9.61110937,12.111125 C8.25396437,12.111125 7.11110937,10.96827 7.11110937,9.61113756 C7.11110937,8.2540051 8.25395181,7.111125 9.61110937,7.111125 C10.9682669,7.111125 12.1111094,8.25397999 12.1111094,9.611125 C12.1111094,10.96827 10.9682669,12.111125 9.61110937,12.111125 Z" id="形状"></path>
            </g>
        </g>
    </g>
</svg>