<?xml version="1.0" encoding="UTF-8"?>
<svg width="18px" height="18px" viewBox="0 0 18 18" version="1.1" xmlns="http://www.w3.org/2000/svg" xmlns:xlink="http://www.w3.org/1999/xlink">
    <!-- Generator: Sketch 52.2 (67145) - http://www.bohemiancoding.com/sketch -->
    <title>Group 39</title>
    <desc>Created with Sketch.</desc>
    <g id="1-Telemarketing-" stroke="none" stroke-width="1" fill="none" fill-rule="evenodd">
        <g id="Group-39" transform="translate(-1.000000, -1.000000)">
            <g id="CSV" transform="translate(1.000000, 1.000000)">
                <path d="M9.39860471,0 L10.6197691,0 L10.6197691,1.67478778 C12.8004199,1.68669385 14.9810706,1.65097563 17.1736158,1.68669387 C17.3908205,1.66083361 17.6078772,1.73610558 17.7625467,1.89092613 C17.9172162,2.04574669 17.9924148,2.26301537 17.9665797,2.48043215 C18.0002807,6.60390254 17.9665797,10.7293573 17.9864038,14.8528277 C17.9665797,15.2754933 18.026052,15.7437989 17.7881629,16.1188403 C17.488819,16.3371183 17.1042315,16.3172748 16.7553274,16.3172748 L10.623734,16.3172748 L10.623734,17.9920626 L9.34309724,17.9920626 C6.23269631,17.4185867 3.11634817,16.8847977 0,16.3252122 L0,1.67875648 C3.13220743,1.11718665 6.26639728,0.571491562 9.39860471,0 Z" id="Path" fill="#D24625"></path>
                <path d="M10.6197691,2.30184104 L10.6197691,15.698159 L17.3599624,15.698159 L17.3599624,2.30184104 L10.6197691,2.30184104 Z M13.9006573,4.84775659 C13.9936702,4.90381858 14.1015628,4.93012579 14.2099132,4.92316172 C14.312192,4.92779831 14.4139345,4.90592624 14.5052923,4.85966266 C14.569485,4.82736949 14.6111993,4.76283909 14.6143248,4.69099327 C14.6080751,4.59458704 14.5460429,4.51076179 14.455732,4.47668394 C14.4220311,4.46080917 14.3129985,4.4231066 14.1246696,4.36556058 C13.9892691,4.32747767 13.8567691,4.27973108 13.7281877,4.22268769 C13.6021365,4.15543684 13.5252518,4.02229628 13.5299467,3.87939588 C13.5264923,3.73422094 13.6025258,3.59874922 13.7281877,3.52618233 C14.0122278,3.35963425 14.3639857,3.35963425 14.6480258,3.52618233 C14.771504,3.62704798 14.8440789,3.77742469 14.8462668,3.93694189 L14.5786414,3.93694189 C14.5637108,3.8482097 14.5172433,3.76786926 14.4478024,3.71072649 C14.3639028,3.65780223 14.2651607,3.63344062 14.1663002,3.64127439 C14.0825011,3.63606355 13.9987196,3.65174531 13.9224638,3.68691434 C13.8545142,3.71857987 13.8128372,3.78863416 13.8173961,3.86352111 C13.8209462,3.93905116 13.8670709,4.00599731 13.9363407,4.0361592 C14.0301967,4.07806071 14.1269195,4.11320669 14.2257725,4.1413295 C14.3790413,4.18371389 14.5282954,4.23948984 14.6718147,4.30801455 C14.8081083,4.37942337 14.893054,4.52113789 14.8918622,4.6751185 C14.8968593,4.81787754 14.8298161,4.95358608 14.7134453,5.03626943 C14.4058378,5.20661134 14.0331896,5.21034146 13.7222404,5.04619116 C13.5674849,4.93490013 13.4771058,4.75470696 13.4803864,4.56399515 L13.7579238,4.56399515 C13.763954,4.67434973 13.8156827,4.77718904 13.9006573,4.84775659 Z M11.7695668,4.28618675 C11.7616601,4.06422949 11.8318163,3.84653277 11.9678078,3.67103958 C12.1193948,3.4866308 12.3501911,3.38625075 12.588302,3.40116855 C12.7660204,3.39457549 12.940507,3.44998877 13.0819221,3.55793187 C13.2032191,3.66234479 13.2798554,3.8093745 13.2960223,3.96869143 L13.0244322,3.96869143 C13.0048346,3.86943504 12.9481051,3.78141843 12.8658394,3.72263256 C12.7778904,3.66842013 12.6756046,3.6421319 12.5724428,3.64722743 C12.4180166,3.63744485 12.2690265,3.70604721 12.1759608,3.82978723 C12.085423,3.96407966 12.0415364,4.12445697 12.051069,4.28618675 C12.0408118,4.44957329 12.0839541,4.61186316 12.1739784,4.74853931 C12.3584481,4.94411997 12.6561093,4.98000773 12.8816987,4.83386616 C12.9691352,4.75896136 13.0291273,4.65701481 13.0521859,4.5441517 L13.3237761,4.5441517 C13.29573,4.72707174 13.2011186,4.8931568 13.0581332,5.01047293 C12.9241288,5.11655849 12.7571008,5.17205469 12.5863196,5.16723625 C12.3453132,5.18407068 12.1106316,5.0853934 11.9539309,4.90133392 C11.823923,4.72346389 11.7588427,4.50631761 11.7695668,4.28618675 Z M15.9147856,5.13350237 L15.5797584,5.13350237 L14.9850355,3.43490244 L15.2863617,3.43490244 L15.752228,4.82394444 L16.2180943,3.43490244 L16.5194206,3.43490244 L15.9147856,5.13350237 Z" id="Shape" fill="#FFFFFF" fill-rule="nonzero"></path>
                <path d="M11.3354191,6.43324881 L16.6462948,6.43324881 L16.6462948,8.37195458 L11.3354191,8.37195458 L11.3354191,6.43324881 Z M11.3354191,9.32840921 L16.6462948,9.32840921 L16.6462948,11.267115 L11.3354191,11.267115 L11.3354191,9.32840921 Z M11.3354191,12.2235696 L16.6462948,12.2235696 L16.6462948,14.1622754 L11.3354191,14.1622754 L11.3354191,12.2235696 Z" id="Shape" fill="#D24625" fill-rule="nonzero"></path>
                <path d="M6.70054503,10.2650204 L6.64305513,10.4872671 C6.57331033,10.8391607 6.39015265,11.1584312 6.12168138,11.3960975 C5.85316301,11.5831363 5.53063671,11.676572 5.20382564,11.6619998 C4.62099716,11.6619998 4.19081425,11.485393 3.92318893,11.1381325 C3.65556361,10.790872 3.53661903,10.2848639 3.53661903,9.61415501 C3.53661903,8.94344616 3.66944049,8.45331277 3.93310098,8.10406791 C4.19676146,7.75482305 4.61108511,7.55043546 5.1760719,7.55043546 C5.49696567,7.53270239 5.8156695,7.61297515 6.08996281,7.78061955 C6.33061894,7.95717699 6.49619335,8.21782181 6.55384669,8.51085879 L6.61331899,8.73112115 L8.1992468,8.73112115 L8.14572174,8.38981369 C8.06457847,7.72541173 7.7309056,7.1178183 7.21398916,6.6931981 C6.63716283,6.24767901 5.92186663,6.0200222 5.19391359,6.05027009 C4.0996234,6.05027009 3.25115201,6.42332709 2.67427078,7.15356631 C2.18065074,7.78061955 1.91500785,8.61007607 1.91500783,9.61415501 C1.91500781,10.6182339 2.16082665,11.4556278 2.64453464,12.0628376 C3.21546865,12.7910925 4.07979931,13.1601808 5.22166733,13.1601808 C5.91503873,13.1737671 6.59171551,12.9465855 7.13667517,12.5172528 C7.71971876,12.0391637 8.10702329,11.363367 8.22501813,10.6182339 L8.29242007,10.2650204 L6.70054503,10.2650204 Z" id="Path" fill="#FFFFFF"></path>
            </g>
            <rect id="Rectangle-Copy-11" fill-opacity="0" fill="#D8D8D8" x="0" y="0" width="20" height="20"></rect>
        </g>
    </g>
</svg>