<?xml version="1.0" encoding="UTF-8"?>
<svg width="18px" height="18px" viewBox="0 0 18 18" version="1.1" xmlns="http://www.w3.org/2000/svg" xmlns:xlink="http://www.w3.org/1999/xlink">
    <!-- Generator: Sketch 52.2 (67145) - http://www.bohemiancoding.com/sketch -->
    <title>Group 61</title>
    <desc>Created with Sketch.</desc>
    <g id="1-Telemarketing-" stroke="none" stroke-width="1" fill="none" fill-rule="evenodd">
        <g id="Group-61" transform="translate(-1.000000, -1.000000)">
            <rect id="Combined-Shape-Copy" fill="#FFFFFF" x="3" y="3" width="15" height="13"></rect>
            <g id="Group-48">
                <g id="excel-(1)" transform="translate(1.000000, 1.000000)" fill="#6AAB20" fill-rule="nonzero">
                    <path d="M15.9250836,9.62742857 L13.0637057,9.62742857 L13.0637057,8.163 L15.9250836,8.163 L15.9250836,9.62871429 L15.9250836,9.62742857 Z M15.9250836,10.4644286 L13.0637057,10.4644286 L13.0637057,11.9301429 L15.9250836,11.9301429 L15.9250836,10.4657143 L15.9250836,10.4644286 Z M15.9250836,3.55757143 L13.0637057,3.55757143 L13.0637057,5.02328571 L15.9250836,5.02328571 L15.9250836,3.55757143 Z M15.9250836,5.86028571 L13.0637057,5.86028571 L13.0637057,7.32857143 L15.9250836,7.32857143 L15.9250836,5.86028571 Z M15.9250836,12.7671429 L13.0637057,12.7671429 L13.0637057,14.2328571 L15.9250836,14.2328571 L15.9250836,12.7671429 Z M17.8990234,15.6561429 C17.7356843,16.0113051 17.3461417,16.2033435 16.9653512,16.1164286 L10.6132977,16.1164286 L10.6132977,18 L9.34571237,18 L0,16.3285714 L0,1.67142857 L9.39965217,0 L10.6132977,0 L10.6132977,1.67142857 L16.7444548,1.67142857 C17.0990956,1.63746365 17.4559682,1.70713147 17.7718796,1.872 C17.938127,2.19757442 18.010188,2.56317983 17.9799331,2.92757143 L17.9722274,13.824 C18.0043009,14.4357425 17.9789321,15.0491485 17.8964548,15.6561429 L17.8990234,15.6561429 Z M7.49634783,12.3724286 C6.92355853,11.1998571 6.34948495,10.0362857 5.78825418,8.86371429 C6.34391973,7.72285714 6.89316388,6.57942857 7.43598662,5.43342857 C6.9727893,5.45657143 6.51002007,5.48528571 6.04767893,5.51957143 C5.70220736,6.37971429 5.30022742,7.21671429 5.03052843,8.1 C4.77367224,7.26042857 4.4461806,6.453 4.14180602,5.634 C3.69230769,5.664 3.24323746,5.69271429 2.79459532,5.72014286 C3.26849498,6.79242857 3.77321739,7.84285714 4.23812709,8.92671429 C3.69102341,9.97328571 3.18501672,11.034 2.6610301,12.0857143 C3.10795987,12.105 3.56002676,12.123 4.00310368,12.1294286 C4.32160535,11.2962857 4.71716388,10.4952857 4.99585284,9.64542857 C5.28577226,10.5402973 5.62578858,11.418115 6.01428763,12.2747143 C6.50488294,12.3107143 6.99547826,12.3428571 7.48735786,12.3724286 L7.49634783,12.3724286 Z M17.0090167,2.66271429 L10.6132977,2.66271429 L10.6132977,3.56271429 L12.246903,3.56271429 L12.246903,5.02842857 L10.6132977,5.02842857 L10.6132977,5.86028571 L12.246903,5.86028571 L12.246903,7.32857143 L10.6132977,7.32857143 L10.6132977,8.163 L12.246903,8.163 L12.246903,9.62871429 L10.6132977,9.62871429 L10.6132977,10.4657143 L12.246903,10.4657143 L12.246903,11.9314286 L10.6132977,11.9314286 L10.6132977,12.7671429 L12.246903,12.7671429 L12.246903,14.2328571 L10.6132977,14.2328571 L10.6132977,15.201 L17.0000268,15.201 L17.0000268,2.66271429 L17.0090167,2.66271429 Z" id="Shape"></path>
                </g>
                <rect id="Rectangle" fill-opacity="0" fill="#D8D8D8" x="0" y="0" width="20" height="20"></rect>
            </g>
        </g>
    </g>
</svg>