<?xml version="1.0" encoding="UTF-8"?>
<svg width="16px" height="18px" viewBox="0 0 16 18" version="1.1" xmlns="http://www.w3.org/2000/svg" xmlns:xlink="http://www.w3.org/1999/xlink">
    <!-- Generator: Sketch 52.2 (67145) - http://www.bohemiancoding.com/sketch -->
    <title>Group 51</title>
    <desc>Created with Sketch.</desc>
    <g id="1-Telemarketing-" stroke="none" stroke-width="1" fill="none" fill-rule="evenodd">
        <g id="Group-51" transform="translate(-2.000000, -1.000000)">
            <rect id="Combined-Shape-Copy" fill="#FFFFFF" x="3" y="5" width="14" height="11"></rect>
            <g id="Group-47">
                <rect id="Rectangle-Copy-5" fill-opacity="0" fill="#D8D8D8" x="0" y="0" width="20" height="20"></rect>
                <g id="pdf" transform="translate(2.000000, 1.000000)">
                    <path d="M4.32686234,8.64353572 L3.57710641,8.64353572 L3.57710641,9.99964285 L5.02963359,9.99964285 L5.02963359,9.20860715 C4.99797722,8.86178572 4.76372015,8.67375 4.32686234,8.64353572 Z M8.12229352,8.64353572 L7.37253759,8.64353572 L7.37253759,11.7398572 L8.8953752,11.7398572 L8.8953752,9.27642857 C8.84872372,8.89971428 8.59080767,8.68853572 8.12229352,8.64353572 Z" id="Shape" fill="#E81D29" fill-rule="nonzero"></path>
                    <path d="M12.3062649,0 L1.2328695,0 C0.55442369,0.00192856641 0.00460266059,0.538071434 0.00260331663,1.20021428 L0.00260331663,16.8001072 C0.00460266059,17.4619286 0.55442369,17.9980714 1.2328695,18 L14.7671305,18 C15.4459095,17.9980714 15.9953973,17.4619286 15.9973967,16.7997857 L15.9973967,3.6 L12.3062649,0 Z M5.96666189,9.99932143 C5.93500552,10.5116786 5.630438,10.7829643 5.05295933,10.8128572 L3.57677319,10.8128572 L3.57677319,12.50775 L2.63974487,12.50775 L2.63974487,7.82967857 L4.98264887,7.82967857 C5.60711227,7.86021428 5.93500552,8.154 5.96666189,8.71103572 L5.96666189,9.99932143 Z M9.83273675,11.6492143 C9.80108038,12.1917857 9.47318712,12.4775357 8.84872372,12.5080714 L6.43550927,12.5080714 L6.43550927,7.82967857 L8.68477709,7.82967857 C9.41887147,7.875 9.80141361,8.20639285 9.83273675,8.82417857 L9.83273675,11.6492143 Z M13.4878803,8.64353572 L12.0353531,8.64353572 C11.6448135,8.67407143 11.426218,8.847 11.3792333,9.16328572 L11.3792333,9.77335715 L13.3709183,9.77335715 L13.3709183,10.5868928 L11.3792333,10.5868928 L11.3792333,12.5080714 L10.442205,12.5080714 L10.442205,8.80167857 C10.4575334,8.16878572 10.8090856,7.84478572 11.4965285,7.83 L13.4882135,7.83 L13.4882135,8.64353572 L13.4878803,8.64353572 Z" id="Shape" fill="#E81D29" fill-rule="nonzero"></path>
                    <path d="M15.9973967,3.53571428 L13.5538588,3.53571428 C12.8790024,3.53571428 12.3319232,3.00800191 12.3319232,2.35703572 L12.3319232,0 L15.9973967,3.53571428 Z" id="Path" fill="#FFB5BA"></path>
                </g>
            </g>
        </g>
    </g>
</svg>